<svg width="20" height="20" viewBox="0 0 20 20" fill="none" xmlns="http://www.w3.org/2000/svg">
<g clip-path="url(#clip0_1_29)">
<g clip-path="url(#clip1_1_29)">
<path d="M11.7678 11.7678C13.9156 9.61993 13.9156 6.13752 11.7678 3.98964C9.61987 1.84175 6.13747 1.84175 3.98958 3.98964C1.8417 6.13752 1.8417 9.61993 3.98958 11.7678C6.13747 13.9157 9.61987 13.9157 11.7678 11.7678Z" stroke="black" stroke-width="3"/>
<path d="M13.5355 11.4143C12.9497 10.8285 12 10.8285 11.4142 11.4143C10.8284 12 10.8284 12.9498 11.4142 13.5356L14.9497 17.0711C15.5355 17.6569 16.4853 17.6569 17.0711 17.0711C17.6568 16.4853 17.6568 15.5356 17.0711 14.9498L13.5355 11.4143Z" fill="black"/>
</g>
</g>
<defs>
<clipPath id="clip0_1_29">
<rect width="20" height="20" fill="white"/>
</clipPath>
<clipPath id="clip1_1_29">
<rect width="20" height="20" fill="white"/>
</clipPath>
</defs>
</svg>
