<svg width="20" height="20" viewBox="0 0 20 20" fill="none" xmlns="http://www.w3.org/2000/svg">
<g opacity="0.4">
<path d="M17.5729 7.00721C17.7414 10.3008 16.819 12.9296 14.8088 14.74C12.4952 16.8237 8.85919 17.6206 4.83733 16.9897C4.1438 16.881 3.40776 16.654 2.65307 16.3446L0.196442 15.3375L2.70703 14.4737C3.55339 14.1825 4.23279 13.9218 5.0231 13.5747C4.1914 13.2646 3.48721 12.7062 2.99307 11.9465L2.05396 10.5028L2.97647 10.4492C2.52363 10.1353 2.15326 9.74354 1.86111 9.29979C1.60515 8.91074 1.41918 8.49241 1.30335 8.06807L0.844667 6.38764L1.99648 6.69657C1.25516 5.65632 1.00059 4.37173 1.32865 3.11377L1.77861 1.38842L3.01619 2.67205C3.46564 3.13822 3.93828 3.54913 4.43192 3.90849C5.58117 4.74514 6.80541 5.27996 8.07438 5.58196C8.50452 5.68433 8.92184 5.75563 9.33748 5.80378C8.95931 3.96142 9.76783 2.62422 11.0508 1.8356C12.6681 0.841662 14.9019 0.931737 16.3807 2.29367C16.4025 2.31375 16.4184 2.31799 16.4246 2.31644C16.6665 2.25635 16.8773 2.1914 17.1229 2.10387L19.094 1.40142L18.3626 3.49001L19.5906 3.49089L18.4 5.08731C18.2601 5.27495 18.1152 5.46877 17.9553 5.68215C17.6862 6.04159 17.5477 6.51264 17.5729 7.00721ZM17.155 5.08258C17.3306 4.84821 17.4766 4.65274 17.5984 4.48947L16.9533 4.48902L17.4586 3.04584C17.2159 3.13236 16.9679 3.21185 16.6658 3.28693C16.3292 3.37055 15.9695 3.27426 15.7036 3.02951C14.4722 1.89548 12.6944 1.99924 11.5744 2.68756C11.0382 3.01715 9.84939 3.99082 10.3918 5.90839C10.4163 5.9946 10.4187 5.99674 10.5119 6.90235C10.0883 6.80408 5.88027 7.08347 2.29629 3.36612C1.95892 4.65976 2.41912 6.00543 3.5675 6.90112L5.16128 8.14441L3.14971 7.94544C2.74002 7.90485 2.48596 7.86319 2.26806 7.80475C2.35015 8.1055 2.48703 8.43173 2.69653 8.75018C3.01559 9.2348 3.61755 9.86667 4.67361 10.1253L6.84692 10.6575L4.69162 11.2578C4.40917 11.3365 4.12551 11.3842 3.83132 11.4012C4.38537 12.253 5.28671 12.7776 6.36917 12.8469L8.62899 12.9915L6.58218 13.9603C5.11596 14.6543 4.20806 15.0148 3.03237 15.4193C3.61267 15.6572 4.31381 15.8954 4.99221 16.0018C8.73825 16.5894 12.0724 15.8586 14.1396 13.9969C15.9091 12.4033 16.7282 10.0687 16.5742 7.05829C16.5373 6.3338 16.7435 5.63205 17.155 5.08258Z" fill="#1EA1F1"/>
</g>
</svg>
