<svg width="20" height="20" viewBox="0 0 20 20" fill="none" xmlns="http://www.w3.org/2000/svg">
<g clip-path="url(#clip0_1_183)">
<g opacity="0.4">
<path d="M10.1229 2.50024C10.1756 2.50045 10.2399 2.50079 10.3148 2.50129C10.564 2.50297 10.8415 2.50598 11.1403 2.51067C11.9945 2.52406 12.8489 2.54818 13.6475 2.58576C15.1802 2.65787 16.3178 2.7693 16.9451 2.93801C17.9815 3.22053 18.7891 4.03331 19.065 5.07141C19.2051 5.59748 19.307 6.31024 19.3793 7.17031C19.4322 7.80043 19.4661 8.47338 19.4849 9.14602C19.4962 9.54949 19.5 9.86394 19.5 10.0454C19.5 10.2269 19.4962 10.5413 19.4849 10.9448C19.4661 11.6174 19.4322 12.2904 19.3793 12.9205C19.307 13.7806 19.2051 14.4934 19.065 15.0193C18.7892 16.0574 17.9815 16.8703 16.9435 17.1533C16.3178 17.3215 15.1802 17.4329 13.6475 17.5051C12.8489 17.5426 11.9945 17.5667 11.1403 17.5801C10.8415 17.5848 10.564 17.5878 10.3148 17.5895C10.2399 17.59 10.1756 17.5904 10.1229 17.5906H9.87714C9.82438 17.5904 9.7601 17.59 9.6852 17.5895C9.43603 17.5878 9.1585 17.5848 8.85966 17.5801C8.00546 17.5667 7.15109 17.5426 6.35252 17.5051C4.81976 17.4329 3.68225 17.3215 3.05485 17.1528C2.01848 16.8703 1.21084 16.0574 0.935018 15.0195C0.794934 14.4934 0.692956 13.7806 0.620722 12.9205C0.567805 12.2904 0.533896 11.6174 0.515067 10.9448C0.503773 10.5413 0.5 10.2269 0.5 10.0454L0.500242 9.95962C0.501231 9.77228 0.505386 9.49185 0.515067 9.14602C0.533896 8.47338 0.567805 7.80043 0.620722 7.17031C0.692956 6.31018 0.794934 5.59737 0.934954 5.07153C1.21084 4.03337 2.01848 3.22054 3.05653 2.93756C3.68225 2.7693 4.81976 2.65787 6.35252 2.58576C7.15109 2.54818 8.00546 2.52406 8.85966 2.51067C9.1585 2.50598 9.43603 2.50297 9.6852 2.50129C9.7601 2.50079 9.82438 2.50045 9.87714 2.50024H10.1229ZM10.1196 3.50024H9.88044C9.8288 3.50044 9.76566 3.50078 9.69192 3.50127C9.44563 3.50293 9.17107 3.50591 8.87535 3.51055C8.03081 3.52379 7.18644 3.54763 6.39952 3.58465C4.94096 3.65328 3.84748 3.76039 3.31787 3.9028C2.62539 4.09158 2.08575 4.63469 1.90135 5.32861C1.77963 5.78569 1.68493 6.44763 1.61721 7.254C1.56603 7.86343 1.53302 8.51857 1.51468 9.17401C1.50681 9.455 1.50269 9.69106 1.50098 9.86594V10.2249C1.50269 10.3998 1.50681 10.6358 1.51468 10.9168C1.53302 11.5722 1.56603 12.2274 1.61721 12.8368C1.68493 13.6432 1.77963 14.3051 1.90141 14.7624C2.08575 15.4561 2.62539 15.9992 3.3162 16.1876C3.84748 16.3304 4.94096 16.4375 6.39952 16.5062C7.18644 16.5432 8.03081 16.567 8.87535 16.5803C9.17107 16.5849 9.44563 16.5879 9.69192 16.5895C9.76566 16.59 9.8288 16.5904 9.88044 16.5906H10.1196C10.1712 16.5904 10.2343 16.59 10.3081 16.5895C10.5544 16.5879 10.8289 16.5849 11.1247 16.5803C11.9692 16.567 12.8136 16.5432 13.6005 16.5062C15.059 16.4375 16.1525 16.3304 16.6821 16.188C17.3746 15.9992 17.9142 15.4561 18.0987 14.7622C18.2204 14.3051 18.3151 13.6432 18.3828 12.8368C18.434 12.2274 18.467 11.5722 18.4853 10.9168C18.4963 10.5234 18.5 10.2181 18.5 10.0454C18.5 9.87271 18.4963 9.56739 18.4853 9.17401C18.467 8.51857 18.434 7.86343 18.3828 7.254C18.3151 6.44763 18.2204 5.78569 18.0986 5.32837C17.9142 4.63469 17.3746 4.09158 16.6838 3.90325C16.1525 3.76039 15.059 3.65328 13.6005 3.58465C12.8136 3.54763 11.9692 3.52379 11.1247 3.51055C10.8289 3.50591 10.5544 3.50293 10.3081 3.50127C10.2343 3.50078 10.1712 3.50044 10.1196 3.50024ZM7.45455 6.21183L14.193 10.0454L7.45455 13.879V6.21183ZM8.45455 7.93125V12.1596L12.1707 10.0454L8.45455 7.93125Z" fill="#FF2500"/>
</g>
</g>
<defs>
<clipPath id="clip0_1_183">
<rect width="20" height="20" fill="white"/>
</clipPath>
</defs>
</svg>
